<?xml version="1.0" encoding="utf-8"?>
<!-- Generator: Adobe Illustrator 26.4.1, SVG Export Plug-In . SVG Version: 6.00 Build 0)  -->
<svg version="1.1" xmlns="http://www.w3.org/2000/svg" xmlns:xlink="http://www.w3.org/1999/xlink" x="0px" y="0px"
	 viewBox="0 0 1555.2 1036.8" style="enable-background:new 0 0 1555.2 1036.8;" xml:space="preserve">
<style type="text/css">
	.st0{display:none;}
	.st1{fill-rule:evenodd;clip-rule:evenodd;}
</style>
<g id="Layer_2" class="st0">
</g>
<g id="IMG_x5F_8031_x5F_Edited_x5F_make_logo_xA0_Image_1_">
	<path class="st1" d="M535.8,611.48c-0.71,5.35-1.27,10.72-2.17,16.04c-0.56,3.3-1.73,6.51-2.43,9.8
		c-1.06,5.07-1.71,10.23-2.97,15.24c-2.14,8.51-4.54,16.94-6.98,25.36c-1.19,4.1-2.69,8.12-4.08,12.16c-0.69,1.96-1.57,4-3.98,4.03
		c-2.67,0.04-3.92-2.01-4.57-4.28c-1.71-6.06-3.07-12.22-3.04-18.56c0.03-6.97,0.68-13.96,0.34-20.91
		c-0.37-7.62-1.04-15.3-2.57-22.75c-1.41-6.91-1.96-13.78-2.14-20.75c-0.23-8.84,1.77-17.42,3-26.07
		c0.91-6.45,4.71-9.81,11.16-10.89c9.37-1.56,17.3,3.09,20.66,12.1c0.63,1.68,1.49,3.29,2.08,4.98c1.06,3.01,1.41,5.99,0.63,9.26
		c-1.19,5.02-1.85,10.17-2.74,15.27C535.94,611.5,535.87,611.49,535.8,611.48z"/>
	<path class="st1" d="M991.97,619.38c2.2,2.17,4.81,2.68,7.34,3.17c7.14,1.42,14.31,2.7,21.46,4.09
		c18.09,3.53,35.99,7.82,53.33,14.17c15.8,5.78,31.16,12.55,46.49,19.44c18.33,8.24,35.76,18.11,53.05,28.3
		c11.52,6.79,23.21,13.3,34.81,19.96c1.97,1.13,3.92,2.15,6.69,0.89c0.23-1.28,0.67-2.81,0.77-4.36c0.98-14.42,4.39-28.4,7.93-42.32
		c4.78-18.85,10.12-37.55,15.32-56.29c7.38-26.54,14.78-53.08,22.29-79.59c6.9-24.36,13.95-48.68,20.96-73
		c4.93-17.13,9.76-34.29,14.92-51.35c2.57-8.53,5.48-16.98,8.78-25.24c1.43-3.59,1.02-7.56,3.31-10.95
		c2.13-3.15,3.44-6.86,5.23-10.25c2.07-3.94,4.04-7.97,6.5-11.66c2.34-3.53,5.09-6.81,7.96-9.93c4.17-4.53,9.5-6.52,15.69-6.86
		c5.35-0.29,9.95,0.97,14.09,4.34c4.56,3.69,9.71,6.76,13.27,11.51c3.39,4.53,6.69,9.19,9.45,14.11c8.27,14.77,14.21,30.42,17,47.19
		c0.86,5.18,2.24,10.29,2.92,15.48c1.27,9.83,2.34,19.69,3.25,29.56c2.1,18.66,3.82,52.79,3.76,58.71
		c0.61,17.21,0.99,34.42-0.98,51.59c-0.39,3.41-0.19,6.89-0.4,10.33c-0.8,13.34-1.64,26.68-2.51,40.02
		c-0.11,1.58-0.47,3.13-0.68,4.53c-1.7,0.63-2.29-0.3-2.44-1.28c-0.64-4.18-1.37-8.37-1.68-12.59c-0.66-8.86-0.42-17.78-2.28-26.55
		c-0.54-2.55-0.24-5.26-0.49-7.87c-0.14-1.53,0.09-3.21-0.98-4.7c-1.94,1.75-0.67,4.37-2.45,6.65c-0.93-6.23-1.49-12-1.62-17.78
		c-0.22-10.51-0.42-21.01-1.6-31.49c-0.89-7.85-1.49-30.77-2.3-38.64c-0.78-7.65-3.21-32.37-4.37-39.97
		c-1.48-9.61-3.17-19.19-5.04-28.73c-2.24-11.38-5.84-22.38-10.84-32.81c-3.76-7.86-8.38-15.28-14.99-21.21
		c-1.5-1.36-2.93-2.81-5.09-3.15c-2.75,0.7-4.33,2.88-5.97,4.91c-4.97,6.18-8.92,13.01-12.5,20.07
		c-6.44,12.7-10.56,26.3-14.92,39.77c-5.99,18.49-11.79,37.06-17.39,55.67c-3.56,11.82-6.98,23.71-9.84,35.73
		c-7.28,30.55-16.06,60.68-24,91.05c-5.32,20.37-10.4,40.8-15.53,61.22c-1.77,7.05-3.61,14.12-4.89,21.27
		c-2.45,13.77-4.3,27.62-3.51,41.68c0.16,2.61,0.12,5.26-0.08,7.88c-0.49,6.37-6.48,10.75-12.37,8.55
		c-6.25-2.33-12.28-5.27-18.25-8.25c-7.61-3.8-15.09-7.86-22.57-11.91c-9.44-5.11-18.82-10.33-28.22-15.51
		c-1.42-0.78-2.76-1.73-4.21-2.42c-13.73-6.5-27.39-13.14-41.25-19.35c-6.81-3.05-13.98-5.34-21.02-7.87
		c-11.23-4.03-22.37-8.37-33.77-11.84c-11.03-3.35-22.3-5.99-33.78-7.52c-19.66-2.62-39.33-5.25-59-7.86
		c-6.75-0.9-12.84-3.76-18.52-7.17c-3.19-1.91-6.06-4.92-8.07-8.07c-2.65-4.18-3.09-9.16-1.79-14.08c0.94-3.56,2.13-7.03,5.52-9.12
		c1.03-0.64,2.06-1.32,3.18-1.74c17.62-6.69,34.85-14.28,51.35-23.37c7.07-3.89,13.67-8.66,20.29-13.32
		c25.41-17.88,48.66-38.37,71.36-59.49c6.23-5.79,12.72-11.33,17.98-18.06c5.22-6.67,11.33-12.66,15.2-20.39
		c1.75-3.48,5-5.81,8.06-8.13c2.09-1.59,4.4-2.88,6.6-4.33c2.7-1.79,5.38-3.59,8.06-5.4c1-0.68,1.94-1.48,2.97-2.12
		c7.46-4.62,14.22-2.91,19.3,4.41c5.49,7.9,4.89,16.79-0.99,24.17c-2.1,2.64-5.05,4.62-7.68,6.8c-9.81,8.13-19.7,16.15-29.46,24.34
		c-8.39,7.02-16.6,14.25-24.96,21.3c-5.26,4.43-10.65,8.71-15.97,13.05c-11.59,9.47-23.14,18.98-34.79,28.39
		c-8.02,6.49-16.12,12.88-24.87,18.42c-4.09,2.58-7.73,5.85-11.76,8.53c-4.03,2.68-8.27,5.05-12.44,7.53
		c-3.13,1.86-6.31,3.66-9.43,5.53C993.25,618.16,992.73,618.74,991.97,619.38z"/>
	<path class="st1" d="M872.56,264.27c5.93,1.31,11.83,2.76,17.79,3.9c13.74,2.63,27.24,6.16,40.58,10.32
		c1.02,0.31,2.1,0.43,4.35,0.87c-0.73-1.31-1.03-1.86-1.35-2.43c0.24-0.1,0.63-0.43,0.9-0.35c23.4,6.73,44.96,17.37,64.92,31.16
		c18.22,12.6,33.13,28.51,44.36,47.61c7.11,12.1,12.35,25.02,15.2,38.89c1.73,8.47,2.6,16.83,1.84,25.49
		c-1.24,13.82-6.77,25.56-15.96,35.75c-1.96,2.17-3.73,4.54-5.86,6.52c-3.95,3.68-8.05,7.2-12.2,10.66
		c-7.29,6.09-15.6,10.7-23.77,15.43c-6.81,3.94-13.96,7.35-21.15,10.56c-18.72,8.36-37.38,16.91-56.38,24.58
		c-19.44,7.85-39.24,14.79-58.91,22.03c-8.04,2.96-16.17,5.67-24.25,8.5c-0.64,0.22-1.31,0.41-1.9,0.73
		c-9.31,5.23-19.69,7.71-29.57,11.5c-13.68,5.25-27.52,10.06-41.28,15.12c-17.98,6.62-36.01,13.14-53.9,19.99
		c-15.99,6.13-31.83,12.66-47.73,19.02c-2.7,1.08-5.37,2.21-8.03,3.3c0.25,2.43,1.91,1.77,3.03,1.67c8.11-0.71,16.21-0.57,24.24,0.8
		c4.44,0.75,8.88,1.62,13.2,2.86c4.75,1.37,9.44,3.07,13.11,6.68c0.48,0.47,1.06,0.85,1.63,1.21c2.79,1.81,4.25,1.82,6.76-0.1
		c1.07-0.82,1.98-1.85,3.03-2.69c3.69-2.95,7.36-5.94,11.16-8.76c1.42-1.06,3.08-2.01,4.77-2.48c7.22-2,14.68-3.27,22.07-2.06
		c10.98,1.8,21.34,5.49,30.51,12.15c9.46,6.88,19.49,7.21,29.99,2.25c9.57-4.51,19.13-9.01,29.44-11.79
		c12.06-3.26,24.04-3.32,36.16-0.91c3.31,0.66,6.63,1.25,9.94,1.92c5.75,1.18,9.18,7.2,7.33,12.81c-0.29,0.86-0.55,1.72-0.77,2.59
		c-1.42,5.42-5.55,8.29-10.41,9.6c-4.23,1.14-8.57,2.34-13.25,1.56c-3.25-0.52-6.72,0.08-10.08,0.44
		c-12.71,1.34-24.55,5.66-36.04,11c-11.91,5.55-24.02,6.67-36.88,3.47c-7.55-1.87-14.46-5.03-21.33-8.28
		c-7.28-3.44-14.82-3.53-22.44-3.13c-4.55,0.24-8.72,2.18-12.17,5.37c-6.8,6.26-13.43,12.67-18.98,20.14
		c-1.59,2.14-3.54,4.09-5.59,5.81c-2.78,2.33-5.44,2.09-8.35-0.29c-0.86-0.7-1.77-1.35-2.71-1.96c-7.49-4.82-9.75-10.35-7.71-18.88
		c0.21-0.87,0.42-1.74,0.59-2.44c-0.75-2.12-2.32-3-4.15-3.32c-3.54-0.62-7.11-1.35-10.68-1.55c-11.06-0.58-22.09-0.24-33.02,1.78
		c-12.64,2.34-25.26,4.75-37.96,6.72c-6.43,1-13,1.39-19.52,1.58c-6.08,0.18-11.51-1.82-15.64-6.63c-0.87-1.01-1.95-1.89-3.08-2.61
		c-3.97-2.52-6.4-6.3-8.3-10.4c-2.76-5.97-2.02-12.03,3.31-17.24c3.08-3.01,6.71-5.25,10.65-7.08c21.26-9.88,42.69-19.4,64.5-28
		c22.24-8.76,44.48-17.51,66.88-25.85c23.24-8.65,46.66-16.84,70.01-25.19c18.04-6.46,36.1-12.84,54.16-19.27
		c16.56-5.9,33.14-11.78,49.67-17.77c11.66-4.23,23.28-8.56,34.85-13.01c15.14-5.83,30.3-11.64,45.29-17.81
		c14.81-6.09,29.26-13.01,43.14-21c9.79-5.63,18.93-12.11,26.53-20.7c4.02-4.56,6.73-9.59,8.29-15.28
		c1.61-5.91,1.97-11.92,0.74-18.06c-2.02-10-4.68-19.71-9.56-28.76c-2.8-5.18-5.79-10.16-9.53-14.72
		c-6.43-7.88-13.2-15.4-20.99-21.98c-1.03-0.86-2.01-1.83-3.12-2.58c-18.38-12.33-36.97-24.29-58.49-30.58
		c-6.69-1.95-13.48-3.61-20.26-5.26c-9.64-2.33-19.3-4.52-28.95-6.76c-1.31-0.3-2.67-0.73-3.99-0.68
		c-11.79,0.49-23.39-1.5-35.02-2.8c-22-2.46-44.02-3.46-66.15-3.23c-33.88,0.37-67.53,3.61-101.07,8.01
		c-24.82,3.25-49.38,8.13-73.84,13.44c-31.75,6.89-63.08,15.37-94.12,24.95c-27.16,8.39-53.77,18.35-80.27,28.59
		c-22.08,8.53-43.78,17.98-64.93,28.68c-23.94,12.12-47.65,24.65-70.5,38.74c-19.77,12.2-39.11,25.05-57.73,38.96
		c-13.71,10.24-27.29,20.67-40.16,32c-15.91,14.01-31.3,28.56-45.42,44.37c-11.11,12.44-21.51,25.5-30.61,39.5
		c-5.77,8.86-11.28,17.9-16.64,27.01c-2.38,4.06-4.16,8.48-6.1,12.78c-1.66,3.7-3.27,7.42-4.68,11.21c-0.85,2.3-1.4,4.75-1.88,7.17
		c-2.31,11.6-1.23,22.81,3.78,33.63c1.32,2.85,2.42,5.84,3.25,8.87c0.98,3.58-0.16,5.95-3.32,8.04c-5.73,3.79-11.06,3.66-16.93-0.24
		c-3.08-2.05-5.61-4.47-7.05-7.96c-0.51-1.24-1.2-2.43-2-3.52c-2.84-3.89-4.54-8.25-5.67-12.9c-1.58-6.57-3.49-13.2-2.93-19.94
		c0.94-11.18,1.62-22.54,8.17-32.37c0.86-1.3,1.45-2.81,2.03-4.27c6.12-15.39,14.94-29.23,24.26-42.83
		c9.82-14.32,20.23-28.18,31.38-41.48c10.73-12.81,22.6-24.51,34.85-35.82c3.8-3.51,7.82-6.73,11.98-9.85
		c7.56-5.65,14.55-12.05,21.87-18.02c4.01-3.27,8.2-6.32,12.33-9.43c3.6-2.7,7.28-5.29,10.85-8.04
		c18.79-14.42,38.45-27.58,58.83-39.64c13.38-7.92,27.02-15.39,40.62-22.92c10.45-5.79,20.91-11.59,31.58-16.95
		c11.28-5.66,22.96-10.52,34.21-16.25c12.08-6.15,24.51-11.44,37.18-16.17c6.74-2.52,13.73-4.38,20.54-6.73
		c10.44-3.6,20.9-7.1,31.17-11.14c12.19-4.78,24.43-9.39,37.16-12.42c12.27-2.92,24.01-7.52,36.23-10.57
		c24.28-6.08,48.51-12.37,73.16-16.77c8.2-1.46,16.47-2.54,24.71-3.81c8-1.24,16-2.58,24.01-3.74c4.23-0.62,8.5-0.99,12.76-1.39
		c7.4-0.7,14.8-1.4,22.21-1.99c13.25-1.05,26.51-2.03,39.78-3.03c4.7-0.35,9.37-0.57,14-1.93c2.71-0.8,5.93-0.92,8.67-0.26
		c3.6,0.86,7.13,0.85,10.72,0.91c2.93,0.04,5.86,0.16,8.78,0.12c1.99-0.03,3.96,0.11,5.89-1.02c1.24-0.72,2.99-0.82,4.51-0.8
		c18.27,0.25,36.48,1.44,54.62,3.74c3.31,0.42,6.54,1.55,9.8,2.36l0.02-0.12c-0.22,0.47-0.44,0.95-0.66,1.42
		c0.05-0.08-0.57,0.03-0.06-0.19c1.06,0.08,2.11,0.17,3.18,0.26L872.56,264.27z M958.81,293.73c4.09,2.27,8.16,4.54,12.25,6.79
		c4.3,2.37,8.69,4.6,12.9,7.13c3.87,2.33,7.55,4.97,11.32,7.47C989.46,308.17,971.14,297.47,958.81,293.73z M997.17,311.18
		c0.27,0.45,0.36,0.79,0.58,0.92c0.32,0.19,0.72,0.22,1.09,0.33c0.03-0.13,0.06-0.27,0.1-0.4
		C998.41,311.78,997.9,311.53,997.17,311.18z M1005.3,318.08c0.37,0.16,0.75,0.32,1.12,0.47c-0.12-0.17-0.2-0.38-0.35-0.52
		c-0.15-0.14-0.36-0.23-0.56-0.29C1005.49,317.73,1005.38,317.96,1005.3,318.08z M953.16,291.29c-0.1-0.17-0.17-0.37-0.32-0.47
		c-0.16-0.12-0.38-0.14-0.58-0.21c0.1,0.16,0.17,0.37,0.31,0.47C952.73,291.2,952.96,291.22,953.16,291.29z M924.74,280.7l0.54,0.16
		l-0.24-0.41L924.74,280.7z"/>
</g>
<g id="IMG_x5F_8031_x5F_Edited_x5F_make_logo_xA0_Image_copy">
</g>
</svg>
