<?xml version="1.0" encoding="UTF-8"?>
<svg id="Layer_2" data-name="Layer 2" xmlns="http://www.w3.org/2000/svg" viewBox="0 0 24 24">
  <defs>
    <style>
      .cls-1 {
        fill: #231f20;
        stroke-width: 0px;
      }
    </style>
  </defs>
  <g id="Layer_1-2" data-name="Layer 1">
    <path class="cls-1" d="m17.55,24H6.45c-3.56,0-6.45-2.89-6.45-6.45V6.45C0,2.89,2.89,0,6.45,0h11.09c3.56,0,6.45,2.89,6.45,6.45v11.09c0,3.56-2.89,6.45-6.45,6.45ZM6.45,1.34C3.63,1.34,1.34,3.63,1.34,6.45v11.09c0,2.82,2.29,5.11,5.11,5.11h11.09c2.82,0,5.11-2.29,5.11-5.11V6.45c0-2.82-2.29-5.11-5.11-5.11H6.45Zm5.55,15.17c-2.48,0-4.51-2.02-4.51-4.51s2.02-4.51,4.51-4.51,4.51,2.02,4.51,4.51-2.02,4.51-4.51,4.51Zm0-7.67c-1.75,0-3.17,1.42-3.17,3.17s1.42,3.17,3.17,3.17,3.17-1.42,3.17-3.17-1.42-3.17-3.17-3.17Zm6.39-.35c-1.36,0-2.47-1.11-2.47-2.48s1.11-2.47,2.47-2.47,2.47,1.11,2.47,2.47-1.11,2.48-2.47,2.48Zm0-3.61c-.63,0-1.14.51-1.14,1.14s.51,1.14,1.14,1.14,1.14-.51,1.14-1.14-.51-1.14-1.14-1.14Z"/>
  </g>
</svg>