<?xml version="1.0" encoding="UTF-8"?>
<svg id="Layer_2" data-name="Layer 2" xmlns="http://www.w3.org/2000/svg" viewBox="0 0 24 24">
  <defs>
    <style>
      .cls-1 {
        fill: #231f20;
        stroke-width: 0px;
      }
    </style>
  </defs>
  <g id="Layer_1-2" data-name="Layer 1">
    <g>
      <path class="cls-1" d="m17.55,24H6.45c-3.56,0-6.45-2.89-6.45-6.45V6.45C0,2.89,2.89,0,6.45,0h11.09c3.56,0,6.45,2.89,6.45,6.45v11.09c0,3.56-2.89,6.45-6.45,6.45ZM6.45,1.34C3.63,1.34,1.34,3.63,1.34,6.45v11.09c0,2.82,2.29,5.11,5.11,5.11h11.09c2.82,0,5.11-2.29,5.11-5.11V6.45c0-2.82-2.29-5.11-5.11-5.11H6.45Zm.29,18.98c-1.24,0-2.25-1.01-2.25-2.25v-5.31c0-1.24,1.01-2.25,2.25-2.25s2.25,1.01,2.25,2.25v5.31c0,1.24-1.01,2.25-2.25,2.25Zm0-8.47c-.5,0-.91.41-.91.91v5.31c0,.5.41.91.91.91s.91-.41.91-.91v-5.31c0-.5-.41-.91-.91-.91Zm0-3.37c-1.37,0-2.48-1.11-2.48-2.48s1.11-2.47,2.48-2.47,2.47,1.11,2.47,2.47-1.11,2.48-2.47,2.48Zm0-3.61c-.63,0-1.14.51-1.14,1.14s.51,1.14,1.14,1.14,1.14-.51,1.14-1.14-.51-1.14-1.14-1.14Z"/>
      <path class="cls-1" d="m12,20.81c-.56,0-1.1-.2-1.54-.56-.54-.45-.85-1.12-.85-1.82v-5.57c0-1.06.66-2.01,1.62-2.32.97-.32,2.01,0,2.61.76,3.59.2,6.45,3.19,6.45,6.83v.2c0,1.2-.85,2.25-1.97,2.44-.7.12-1.41-.07-1.95-.53-.54-.45-.85-1.12-.85-1.81v-.52c0-.77-.47-1.43-1.14-1.71v2.12c0,1.21-.85,2.26-1.98,2.45-.13.02-.27.03-.4.03Zm0-8.97c-.1,0-.21.02-.33.05-.37.12-.64.52-.64.97v5.57c0,.28.12.55.34.73.22.19.5.26.79.21.46-.08.8-.53.8-1.06v-3.68h.71c1.8,0,3.27,1.47,3.27,3.27v.52c0,.28.13.55.34.73.22.19.51.27.8.22.45-.08.79-.53.79-1.05v-.2c0-2.99-2.43-5.42-5.42-5.42h-.43l-.2-.38c-.14-.27-.45-.49-.83-.49Z"/>
    </g>
  </g>
</svg>